<svg width="165" height="50" viewBox="0 0 165 50" fill="none" xmlns="http://www.w3.org/2000/svg">
<rect y="0.173828" width="165" height="49" rx="5" fill="#F6762C"/>
<path d="M40.1562 30.1738V18.7988H43.5156C44.5208 18.7988 45.4115 19.0228 46.1875 19.4707C46.9688 19.9186 47.5729 20.554 48 21.377C48.4271 22.1999 48.6406 23.1426 48.6406 24.2051V24.7754C48.6406 25.8535 48.4245 26.8014 47.9922 27.6191C47.5651 28.4368 46.9531 29.0671 46.1562 29.5098C45.3646 29.9525 44.4557 30.1738 43.4297 30.1738H40.1562ZM42.1328 20.3926V28.5957H43.4219C44.4583 28.5957 45.2526 28.2728 45.8047 27.627C46.362 26.9759 46.6458 26.0436 46.6562 24.8301V24.1973C46.6562 22.9629 46.388 22.0202 45.8516 21.3691C45.3151 20.7181 44.5365 20.3926 43.5156 20.3926H42.1328ZM59.6875 24.7832C59.6875 25.8978 59.4948 26.877 59.1094 27.7207C58.724 28.5592 58.1719 29.2051 57.4531 29.6582C56.7396 30.1061 55.9167 30.3301 54.9844 30.3301C54.0625 30.3301 53.2396 30.1061 52.5156 29.6582C51.7969 29.2051 51.2396 28.5618 50.8438 27.7285C50.4531 26.8952 50.2552 25.9342 50.25 24.8457V24.2051C50.25 23.0957 50.4453 22.1165 50.8359 21.2676C51.2318 20.4186 51.7865 19.7702 52.5 19.3223C53.2188 18.8691 54.0417 18.6426 54.9688 18.6426C55.8958 18.6426 56.7161 18.8665 57.4297 19.3145C58.1484 19.7572 58.7031 20.3978 59.0938 21.2363C59.4844 22.0697 59.6823 23.041 59.6875 24.1504V24.7832ZM57.7109 24.1895C57.7109 22.929 57.4714 21.9629 56.9922 21.291C56.5182 20.6191 55.8438 20.2832 54.9688 20.2832C54.1146 20.2832 53.4453 20.6191 52.9609 21.291C52.4818 21.9577 52.237 22.903 52.2266 24.127V24.7832C52.2266 26.0332 52.4688 26.9993 52.9531 27.6816C53.4427 28.3639 54.1198 28.7051 54.9844 28.7051C55.8594 28.7051 56.5312 28.3717 57 27.7051C57.474 27.0384 57.7109 26.0645 57.7109 24.7832V24.1895ZM70.5781 27.3613L72.3281 18.7988H74.2891L71.6641 30.1738H69.7734L67.6094 21.8691L65.3984 30.1738H63.5L60.875 18.7988H62.8359L64.6016 27.3457L66.7734 18.7988H68.4297L70.5781 27.3613ZM84.7578 30.1738H82.7812L77.7109 22.1035V30.1738H75.7344V18.7988H77.7109L82.7969 26.9004V18.7988H84.7578V30.1738ZM89.0703 28.5957H94.2344V30.1738H87.0938V18.7988H89.0703V28.5957ZM104.328 24.7832C104.328 25.8978 104.135 26.877 103.75 27.7207C103.365 28.5592 102.812 29.2051 102.094 29.6582C101.38 30.1061 100.557 30.3301 99.625 30.3301C98.7031 30.3301 97.8802 30.1061 97.1562 29.6582C96.4375 29.2051 95.8802 28.5618 95.4844 27.7285C95.0938 26.8952 94.8958 25.9342 94.8906 24.8457V24.2051C94.8906 23.0957 95.0859 22.1165 95.4766 21.2676C95.8724 20.4186 96.4271 19.7702 97.1406 19.3223C97.8594 18.8691 98.6823 18.6426 99.6094 18.6426C100.536 18.6426 101.357 18.8665 102.07 19.3145C102.789 19.7572 103.344 20.3978 103.734 21.2363C104.125 22.0697 104.323 23.041 104.328 24.1504V24.7832ZM102.352 24.1895C102.352 22.929 102.112 21.9629 101.633 21.291C101.159 20.6191 100.484 20.2832 99.6094 20.2832C98.7552 20.2832 98.0859 20.6191 97.6016 21.291C97.1224 21.9577 96.8776 22.903 96.8672 24.127V24.7832C96.8672 26.0332 97.1094 26.9993 97.5938 27.6816C98.0833 28.3639 98.7604 28.7051 99.625 28.7051C100.5 28.7051 101.172 28.3717 101.641 27.7051C102.115 27.0384 102.352 26.0645 102.352 24.7832V24.1895ZM112.492 27.5254H108.086L107.164 30.1738H105.109L109.406 18.7988H111.18L115.484 30.1738H113.422L112.492 27.5254ZM108.641 25.9316H111.938L110.289 21.2129L108.641 25.9316ZM116.781 30.1738V18.7988H120.141C121.146 18.7988 122.036 19.0228 122.812 19.4707C123.594 19.9186 124.198 20.554 124.625 21.377C125.052 22.1999 125.266 23.1426 125.266 24.2051V24.7754C125.266 25.8535 125.049 26.8014 124.617 27.6191C124.19 28.4368 123.578 29.0671 122.781 29.5098C121.99 29.9525 121.081 30.1738 120.055 30.1738H116.781ZM118.758 20.3926V28.5957H120.047C121.083 28.5957 121.878 28.2728 122.43 27.627C122.987 26.9759 123.271 26.0436 123.281 24.8301V24.1973C123.281 22.9629 123.013 22.0202 122.477 21.3691C121.94 20.7181 121.161 20.3926 120.141 20.3926H118.758Z" fill="white"/>
</svg>
